<?xml version="1.0" standalone="no"?>
<!DOCTYPE svg PUBLIC "-//W3C//DTD SVG 20010904//EN"
 "http://www.w3.org/TR/2001/REC-SVG-20010904/DTD/svg10.dtd">
<svg version="1.0" xmlns="http://www.w3.org/2000/svg"
 width="283.000000pt" height="27.000000pt" viewBox="0 0 363.000000 67.000000"
 preserveAspectRatio="xMidYMid meet">

<g transform="translate(0.000000,67.000000) scale(0.100000,-0.100000)"
fill="#000000" stroke="none">
<path d="M105 580 l90 -90 147 0 148 0 0 -148 0 -147 88 -88 c48 -48 91 -87
95 -87 4 0 7 146 7 325 l0 325 -332 0 -333 0 90 -90z"/>
<path d="M0 327 l0 -327 327 0 328 0 -90 90 -90 90 -147 0 -148 0 0 148 0 147
-90 90 -90 90 0 -328z"/>
<path d="M3022 588 c-28 -28 -3 -72 39 -66 30 4 47 33 33 56 -14 21 -55 27
-72 10z"/>
<path d="M880 385 l0 -205 40 0 40 0 0 205 0 205 -40 0 -40 0 0 -205z"/>
<path d="M1151 578 c0 -7 31 -98 68 -203 l67 -190 44 -3 45 -3 68 195 c37 107
67 200 67 206 0 5 -20 10 -44 10 l-43 0 -43 -145 c-24 -80 -46 -145 -50 -145
-3 0 -16 35 -29 78 -12 42 -31 107 -43 145 l-20 67 -44 0 c-29 0 -44 -4 -43
-12z"/>
<path d="M1603 469 c-51 -25 -73 -68 -73 -141 0 -82 33 -126 113 -149 38 -11
110 6 133 32 16 18 16 20 0 38 -16 17 -20 18 -44 5 -41 -21 -70 -17 -100 14
l-27 27 98 3 97 3 0 47 c0 59 -29 108 -75 128 -46 19 -72 18 -122 -7z m105
-61 c7 -7 12 -20 12 -30 0 -15 -9 -18 -55 -18 -59 0 -63 4 -39 38 17 24 62 30
82 10z"/>
<path d="M1952 474 c-12 -8 -22 -10 -22 -5 0 6 -18 11 -40 11 l-40 0 0 -150 0
-150 40 0 40 0 0 105 c0 114 6 125 64 125 24 0 26 4 26 40 0 35 -3 40 -23 40
-12 0 -33 -7 -45 -16z"/>
<path d="M2104 471 c-79 -48 -85 -201 -11 -270 29 -27 96 -33 122 -11 13 11
15 9 15 -13 0 -13 -7 -31 -16 -38 -22 -18 -79 -16 -102 4 -18 17 -20 16 -37
-9 -17 -26 -17 -27 6 -45 67 -51 189 -26 223 45 13 27 16 66 16 190 l0 156
-40 0 c-22 0 -40 -4 -40 -9 0 -6 -12 -3 -27 5 -38 19 -72 18 -109 -5z m124
-135 c3 -84 -2 -96 -44 -96 -50 0 -77 79 -50 144 14 35 18 37 53 34 l38 -3 3
-79z"/>
<path d="M2771 472 c-50 -25 -74 -63 -79 -125 -8 -102 50 -169 147 -169 84 0
139 47 96 82 -11 9 -19 8 -37 -4 -29 -20 -67 -20 -96 0 -46 32 -28 43 71 46
l92 3 -3 49 c-3 58 -20 89 -65 116 -40 25 -82 25 -126 2z m97 -64 c7 -7 12
-20 12 -30 0 -15 -9 -18 -55 -18 -56 0 -62 9 -32 48 12 15 59 16 75 0z"/>
<path d="M3271 473 c-18 -12 -26 -13 -29 -5 -2 7 -21 12 -43 12 l-39 0 0 -150
0 -150 45 0 45 0 0 103 c0 115 6 127 58 127 32 0 33 1 30 38 -4 44 -28 53 -67
25z"/>
<path d="M3431 472 c-57 -29 -76 -64 -76 -140 0 -48 6 -75 19 -95 55 -81 191
-79 240 3 24 41 22 146 -4 188 -35 58 -115 77 -179 44z m103 -71 c23 -25 23
-103 2 -136 -10 -15 -26 -25 -40 -25 -51 0 -80 77 -52 143 12 31 20 37 44 37
16 0 37 -9 46 -19z"/>
<path d="M2380 366 c0 -63 4 -126 10 -141 19 -51 107 -66 153 -27 15 14 17 13
17 -1 0 -13 9 -17 40 -17 l40 0 0 150 0 150 -40 0 -39 0 -3 -112 -3 -113 -28
-9 c-53 -19 -62 -3 -65 123 l-3 111 -39 0 -40 0 0 -114z"/>
<path d="M3010 330 l0 -150 45 0 45 0 0 150 0 150 -45 0 -45 0 0 -150z"/>
</g>
</svg>
